<?xml version="1.0" encoding="UTF-8"?>
<svg xmlns="http://www.w3.org/2000/svg" xmlns:xlink="http://www.w3.org/1999/xlink" width="160" height="130" viewBox="0 0 160 130">
<defs>
<g>
<g id="glyph-0-0">
<path d="M 5.8125 -14.515625 C 7.707031 -14.515625 9.085938 -14.140625 9.953125 -13.390625 C 10.828125 -12.648438 11.265625 -11.601562 11.265625 -10.25 C 11.265625 -9.445312 11.082031 -8.695312 10.71875 -8 C 10.363281 -7.300781 9.757812 -6.734375 8.90625 -6.296875 C 8.0625 -5.867188 6.914062 -5.65625 5.46875 -5.65625 L 3.796875 -5.65625 L 3.796875 0 L 1.96875 0 L 1.96875 -14.515625 Z M 5.65625 -12.953125 L 3.796875 -12.953125 L 3.796875 -7.21875 L 5.265625 -7.21875 C 6.648438 -7.21875 7.679688 -7.441406 8.359375 -7.890625 C 9.035156 -8.335938 9.375 -9.09375 9.375 -10.15625 C 9.375 -11.09375 9.070312 -11.789062 8.46875 -12.25 C 7.875 -12.71875 6.9375 -12.953125 5.65625 -12.953125 Z M 5.65625 -12.953125 "/>
</g>
<g id="glyph-0-1">
<path d="M 11.203125 -5.46875 C 11.203125 -3.664062 10.742188 -2.269531 9.828125 -1.28125 C 8.910156 -0.289062 7.675781 0.203125 6.125 0.203125 C 5.15625 0.203125 4.296875 -0.015625 3.546875 -0.453125 C 2.796875 -0.898438 2.203125 -1.546875 1.765625 -2.390625 C 1.335938 -3.234375 1.125 -4.257812 1.125 -5.46875 C 1.125 -7.269531 1.578125 -8.65625 2.484375 -9.625 C 3.390625 -10.601562 4.625 -11.09375 6.1875 -11.09375 C 7.164062 -11.09375 8.03125 -10.875 8.78125 -10.4375 C 9.539062 -10 10.132812 -9.363281 10.5625 -8.53125 C 10.988281 -7.695312 11.203125 -6.675781 11.203125 -5.46875 Z M 2.96875 -5.46875 C 2.96875 -4.175781 3.222656 -3.15625 3.734375 -2.40625 C 4.242188 -1.65625 5.050781 -1.28125 6.15625 -1.28125 C 7.257812 -1.28125 8.066406 -1.65625 8.578125 -2.40625 C 9.085938 -3.15625 9.34375 -4.175781 9.34375 -5.46875 C 9.34375 -6.757812 9.085938 -7.769531 8.578125 -8.5 C 8.066406 -9.226562 7.253906 -9.59375 6.140625 -9.59375 C 5.023438 -9.59375 4.21875 -9.226562 3.71875 -8.5 C 3.21875 -7.769531 2.96875 -6.757812 2.96875 -5.46875 Z M 2.96875 -5.46875 "/>
</g>
<g id="glyph-0-2">
<path d="M 2.640625 -14.984375 C 2.910156 -14.984375 3.148438 -14.890625 3.359375 -14.703125 C 3.566406 -14.523438 3.671875 -14.238281 3.671875 -13.84375 C 3.671875 -13.46875 3.566406 -13.179688 3.359375 -12.984375 C 3.148438 -12.796875 2.910156 -12.703125 2.640625 -12.703125 C 2.347656 -12.703125 2.097656 -12.796875 1.890625 -12.984375 C 1.679688 -13.179688 1.578125 -13.46875 1.578125 -13.84375 C 1.578125 -14.238281 1.679688 -14.523438 1.890625 -14.703125 C 2.097656 -14.890625 2.347656 -14.984375 2.640625 -14.984375 Z M 3.515625 -10.890625 L 3.515625 0 L 1.734375 0 L 1.734375 -10.890625 Z M 3.515625 -10.890625 "/>
</g>
<g id="glyph-0-3">
<path d="M 6.96875 -11.09375 C 8.269531 -11.09375 9.253906 -10.773438 9.921875 -10.140625 C 10.585938 -9.515625 10.921875 -8.5 10.921875 -7.09375 L 10.921875 0 L 9.140625 0 L 9.140625 -6.96875 C 9.140625 -8.71875 8.328125 -9.59375 6.703125 -9.59375 C 5.503906 -9.59375 4.671875 -9.253906 4.203125 -8.578125 C 3.742188 -7.898438 3.515625 -6.925781 3.515625 -5.65625 L 3.515625 0 L 1.734375 0 L 1.734375 -10.890625 L 3.171875 -10.890625 L 3.4375 -9.40625 L 3.53125 -9.40625 C 3.882812 -9.976562 4.375 -10.398438 5 -10.671875 C 5.625 -10.953125 6.28125 -11.09375 6.96875 -11.09375 Z M 6.96875 -11.09375 "/>
</g>
<g id="glyph-0-4">
<path d="M 5.359375 -1.265625 C 5.628906 -1.265625 5.90625 -1.285156 6.1875 -1.328125 C 6.476562 -1.378906 6.710938 -1.429688 6.890625 -1.484375 L 6.890625 -0.125 C 6.703125 -0.03125 6.429688 0.046875 6.078125 0.109375 C 5.722656 0.171875 5.382812 0.203125 5.0625 0.203125 C 4.488281 0.203125 3.960938 0.101562 3.484375 -0.09375 C 3.003906 -0.289062 2.613281 -0.628906 2.3125 -1.109375 C 2.019531 -1.597656 1.875 -2.285156 1.875 -3.171875 L 1.875 -9.515625 L 0.328125 -9.515625 L 0.328125 -10.375 L 1.890625 -11.078125 L 2.609375 -13.390625 L 3.65625 -13.390625 L 3.65625 -10.890625 L 6.8125 -10.890625 L 6.8125 -9.515625 L 3.65625 -9.515625 L 3.65625 -3.21875 C 3.65625 -2.550781 3.8125 -2.054688 4.125 -1.734375 C 4.445312 -1.421875 4.859375 -1.265625 5.359375 -1.265625 Z M 5.359375 -1.265625 "/>
</g>
<g id="glyph-0-5">
<path d="M 0.8125 -5.5625 C 0.8125 -7.21875 1.050781 -8.816406 1.53125 -10.359375 C 2.007812 -11.898438 2.765625 -13.285156 3.796875 -14.515625 L 5.484375 -14.515625 C 4.535156 -13.242188 3.820312 -11.84375 3.34375 -10.3125 C 2.863281 -8.78125 2.625 -7.207031 2.625 -5.59375 C 2.625 -4.019531 2.863281 -2.476562 3.34375 -0.96875 C 3.820312 0.539062 4.53125 1.9375 5.46875 3.21875 L 3.796875 3.21875 C 2.765625 2.019531 2.007812 0.664062 1.53125 -0.84375 C 1.050781 -2.351562 0.8125 -3.925781 0.8125 -5.5625 Z M 0.8125 -5.5625 "/>
</g>
<g id="glyph-0-6">
<path d="M 3.90625 -2.140625 C 3.726562 -1.421875 3.472656 -0.628906 3.140625 0.234375 C 2.804688 1.097656 2.476562 1.894531 2.15625 2.625 L 0.828125 2.625 C 1.023438 1.851562 1.21875 1.003906 1.40625 0.078125 C 1.601562 -0.835938 1.75 -1.648438 1.84375 -2.359375 L 3.765625 -2.359375 Z M 3.90625 -2.140625 "/>
</g>
<g id="glyph-0-7">
<path d="M 5.28125 -5.5625 C 5.28125 -3.925781 5.039062 -2.351562 4.5625 -0.84375 C 4.082031 0.664062 3.328125 2.019531 2.296875 3.21875 L 0.625 3.21875 C 1.5625 1.9375 2.269531 0.539062 2.75 -0.96875 C 3.226562 -2.476562 3.46875 -4.019531 3.46875 -5.59375 C 3.46875 -7.207031 3.226562 -8.78125 2.75 -10.3125 C 2.269531 -11.84375 1.554688 -13.242188 0.609375 -14.515625 L 2.296875 -14.515625 C 3.328125 -13.285156 4.082031 -11.898438 4.5625 -10.359375 C 5.039062 -8.816406 5.28125 -7.21875 5.28125 -5.5625 Z M 5.28125 -5.5625 "/>
</g>
<g id="glyph-0-8">
<path d="M 5.9375 -11.09375 C 6.875 -11.09375 7.675781 -10.890625 8.34375 -10.484375 C 9.007812 -10.078125 9.519531 -9.503906 9.875 -8.765625 C 10.238281 -8.023438 10.421875 -7.164062 10.421875 -6.1875 L 10.421875 -5.109375 L 2.96875 -5.109375 C 3 -3.867188 3.3125 -2.925781 3.90625 -2.28125 C 4.507812 -1.644531 5.351562 -1.328125 6.4375 -1.328125 C 7.132812 -1.328125 7.75 -1.390625 8.28125 -1.515625 C 8.820312 -1.640625 9.375 -1.828125 9.9375 -2.078125 L 9.9375 -0.515625 C 9.382812 -0.265625 8.835938 -0.0820312 8.296875 0.03125 C 7.753906 0.144531 7.109375 0.203125 6.359375 0.203125 C 5.328125 0.203125 4.414062 -0.00390625 3.625 -0.421875 C 2.832031 -0.847656 2.21875 -1.476562 1.78125 -2.3125 C 1.34375 -3.144531 1.125 -4.160156 1.125 -5.359375 C 1.125 -6.554688 1.320312 -7.582031 1.71875 -8.4375 C 2.113281 -9.289062 2.675781 -9.945312 3.40625 -10.40625 C 4.132812 -10.863281 4.976562 -11.09375 5.9375 -11.09375 Z M 5.921875 -9.640625 C 5.066406 -9.640625 4.390625 -9.363281 3.890625 -8.8125 C 3.398438 -8.257812 3.109375 -7.5 3.015625 -6.53125 L 8.5625 -6.53125 C 8.539062 -7.445312 8.320312 -8.191406 7.90625 -8.765625 C 7.488281 -9.347656 6.828125 -9.640625 5.921875 -9.640625 Z M 5.921875 -9.640625 "/>
</g>
<g id="glyph-0-9">
<path d="M 8.765625 -6.15625 C 8.585938 -6.71875 8.429688 -7.265625 8.296875 -7.796875 C 8.171875 -8.328125 8.078125 -8.742188 8.015625 -9.046875 L 7.921875 -9.046875 C 7.867188 -8.742188 7.78125 -8.328125 7.65625 -7.796875 C 7.539062 -7.265625 7.390625 -6.710938 7.203125 -6.140625 L 5.25 -0.015625 L 3.21875 -0.015625 L 0.21875 -10.921875 L 2.078125 -10.921875 L 3.578125 -5.109375 C 3.722656 -4.523438 3.863281 -3.929688 4 -3.328125 C 4.132812 -2.734375 4.234375 -2.238281 4.296875 -1.84375 L 4.375 -1.84375 C 4.425781 -2.082031 4.488281 -2.367188 4.5625 -2.703125 C 4.632812 -3.046875 4.71875 -3.398438 4.8125 -3.765625 C 4.90625 -4.140625 5.003906 -4.476562 5.109375 -4.78125 L 7.03125 -10.921875 L 8.984375 -10.921875 L 10.859375 -4.78125 C 11.003906 -4.3125 11.144531 -3.804688 11.28125 -3.265625 C 11.425781 -2.722656 11.53125 -2.257812 11.59375 -1.875 L 11.671875 -1.875 C 11.710938 -2.207031 11.800781 -2.671875 11.9375 -3.265625 C 12.082031 -3.867188 12.238281 -4.484375 12.40625 -5.109375 L 13.921875 -10.921875 L 15.75 -10.921875 L 12.71875 -0.015625 L 10.625 -0.015625 Z M 8.765625 -6.15625 "/>
</g>
<g id="glyph-1-0">
<path d="M 4.0625 0.203125 C 2.75 0.203125 1.644531 -0.0625 0.75 -0.59375 L 0.75 -2.3125 C 1.238281 -2.019531 1.765625 -1.773438 2.328125 -1.578125 C 2.890625 -1.390625 3.46875 -1.296875 4.0625 -1.296875 C 5.007812 -1.296875 5.773438 -1.457031 6.359375 -1.78125 C 6.941406 -2.113281 7.363281 -2.546875 7.625 -3.078125 C 7.894531 -3.609375 8.03125 -4.1875 8.03125 -4.8125 C 8.03125 -5.65625 7.785156 -6.304688 7.296875 -6.765625 C 6.804688 -7.222656 6.144531 -7.453125 5.3125 -7.453125 C 4.90625 -7.453125 4.523438 -7.414062 4.171875 -7.34375 C 3.816406 -7.28125 3.421875 -7.195312 2.984375 -7.09375 L 2.234375 -7.6875 L 4.203125 -14.515625 L 10.890625 -14.515625 L 10.546875 -12.890625 L 5.40625 -12.890625 L 4.1875 -8.6875 C 4.425781 -8.738281 4.6875 -8.785156 4.96875 -8.828125 C 5.257812 -8.867188 5.585938 -8.890625 5.953125 -8.890625 C 7.160156 -8.890625 8.117188 -8.546875 8.828125 -7.859375 C 9.546875 -7.171875 9.90625 -6.234375 9.90625 -5.046875 C 9.90625 -4.429688 9.804688 -3.816406 9.609375 -3.203125 C 9.410156 -2.585938 9.085938 -2.019531 8.640625 -1.5 C 8.203125 -0.988281 7.609375 -0.578125 6.859375 -0.265625 C 6.109375 0.046875 5.175781 0.203125 4.0625 0.203125 Z M 4.0625 0.203125 "/>
</g>
<g id="glyph-1-1">
<path d="M 0.0625 0 L 0.390625 -1.53125 L 5 -5.6875 C 5.894531 -6.5 6.625 -7.191406 7.1875 -7.765625 C 7.757812 -8.335938 8.179688 -8.878906 8.453125 -9.390625 C 8.722656 -9.898438 8.859375 -10.476562 8.859375 -11.125 C 8.859375 -11.726562 8.671875 -12.222656 8.296875 -12.609375 C 7.929688 -12.992188 7.398438 -13.1875 6.703125 -13.1875 C 6.109375 -13.1875 5.5625 -13.066406 5.0625 -12.828125 C 4.5625 -12.585938 4.070312 -12.289062 3.59375 -11.9375 L 2.75 -13.15625 C 3.300781 -13.601562 3.914062 -13.972656 4.59375 -14.265625 C 5.269531 -14.566406 6.039062 -14.71875 6.90625 -14.71875 C 8.144531 -14.71875 9.09375 -14.410156 9.75 -13.796875 C 10.40625 -13.179688 10.734375 -12.382812 10.734375 -11.40625 C 10.734375 -10.613281 10.582031 -9.894531 10.28125 -9.25 C 9.988281 -8.613281 9.503906 -7.9375 8.828125 -7.21875 C 8.160156 -6.5 7.265625 -5.648438 6.140625 -4.671875 L 2.71875 -1.703125 L 2.71875 -1.625 L 9.34375 -1.625 L 9.046875 0 Z M 0.0625 0 "/>
</g>
<g id="glyph-2-0">
<path d="M 4.140625 -2.828125 C 4.140625 -2.222656 4.070312 -1.703125 3.9375 -1.265625 C 3.8125 -0.828125 3.613281 -0.492188 3.34375 -0.265625 C 3.070312 -0.0351562 2.707031 0.078125 2.25 0.078125 C 1.613281 0.078125 1.144531 -0.175781 0.84375 -0.6875 C 0.539062 -1.207031 0.390625 -1.921875 0.390625 -2.828125 C 0.390625 -3.441406 0.453125 -3.960938 0.578125 -4.390625 C 0.703125 -4.828125 0.898438 -5.160156 1.171875 -5.390625 C 1.441406 -5.617188 1.800781 -5.734375 2.25 -5.734375 C 2.882812 -5.734375 3.359375 -5.476562 3.671875 -4.96875 C 3.984375 -4.457031 4.140625 -3.742188 4.140625 -2.828125 Z M 1.078125 -2.828125 C 1.078125 -2.054688 1.164062 -1.476562 1.34375 -1.09375 C 1.519531 -0.707031 1.820312 -0.515625 2.25 -0.515625 C 2.675781 -0.515625 2.976562 -0.703125 3.15625 -1.078125 C 3.34375 -1.460938 3.4375 -2.046875 3.4375 -2.828125 C 3.4375 -3.597656 3.34375 -4.175781 3.15625 -4.5625 C 2.976562 -4.945312 2.675781 -5.140625 2.25 -5.140625 C 1.820312 -5.140625 1.519531 -4.945312 1.34375 -4.5625 C 1.164062 -4.175781 1.078125 -3.597656 1.078125 -2.828125 Z M 1.078125 -2.828125 "/>
</g>
<g id="glyph-2-1">
</g>
<g id="glyph-2-2">
<path d="M 4.359375 -2.125 C 4.359375 -1.425781 4.175781 -0.882812 3.8125 -0.5 C 3.457031 -0.113281 2.976562 0.078125 2.375 0.078125 C 2 0.078125 1.664062 -0.00390625 1.375 -0.171875 C 1.082031 -0.347656 0.851562 -0.597656 0.6875 -0.921875 C 0.519531 -1.253906 0.4375 -1.65625 0.4375 -2.125 C 0.4375 -2.820312 0.613281 -3.359375 0.96875 -3.734375 C 1.320312 -4.117188 1.800781 -4.3125 2.40625 -4.3125 C 2.789062 -4.3125 3.128906 -4.222656 3.421875 -4.046875 C 3.710938 -3.878906 3.941406 -3.632812 4.109375 -3.3125 C 4.273438 -2.988281 4.359375 -2.59375 4.359375 -2.125 Z M 1.15625 -2.125 C 1.15625 -1.625 1.253906 -1.226562 1.453125 -0.9375 C 1.648438 -0.644531 1.960938 -0.5 2.390625 -0.5 C 2.816406 -0.5 3.128906 -0.644531 3.328125 -0.9375 C 3.535156 -1.226562 3.640625 -1.625 3.640625 -2.125 C 3.640625 -2.625 3.535156 -3.015625 3.328125 -3.296875 C 3.128906 -3.585938 2.816406 -3.734375 2.390625 -3.734375 C 1.953125 -3.734375 1.632812 -3.585938 1.4375 -3.296875 C 1.25 -3.015625 1.15625 -2.625 1.15625 -2.125 Z M 1.15625 -2.125 "/>
</g>
<g id="glyph-2-3">
<path d="M 2.65625 -4.3125 C 2.726562 -4.3125 2.8125 -4.304688 2.90625 -4.296875 C 3 -4.296875 3.078125 -4.285156 3.140625 -4.265625 L 3.0625 -3.625 C 2.988281 -3.644531 2.910156 -3.660156 2.828125 -3.671875 C 2.753906 -3.679688 2.675781 -3.6875 2.59375 -3.6875 C 2.382812 -3.6875 2.179688 -3.625 1.984375 -3.5 C 1.796875 -3.382812 1.644531 -3.21875 1.53125 -3 C 1.425781 -2.789062 1.375 -2.546875 1.375 -2.265625 L 1.375 0 L 0.671875 0 L 0.671875 -4.234375 L 1.234375 -4.234375 L 1.328125 -3.46875 L 1.359375 -3.46875 C 1.492188 -3.695312 1.664062 -3.894531 1.875 -4.0625 C 2.09375 -4.226562 2.351562 -4.3125 2.65625 -4.3125 Z M 2.65625 -4.3125 "/>
</g>
<g id="glyph-2-4">
<path d="M 5.328125 -4.3125 C 5.804688 -4.3125 6.160156 -4.1875 6.390625 -3.9375 C 6.628906 -3.695312 6.75 -3.304688 6.75 -2.765625 L 6.75 0 L 6.0625 0 L 6.0625 -2.734375 C 6.0625 -3.398438 5.773438 -3.734375 5.203125 -3.734375 C 4.785156 -3.734375 4.488281 -3.613281 4.3125 -3.375 C 4.144531 -3.132812 4.0625 -2.789062 4.0625 -2.34375 L 4.0625 0 L 3.375 0 L 3.375 -2.734375 C 3.375 -3.398438 3.082031 -3.734375 2.5 -3.734375 C 2.070312 -3.734375 1.773438 -3.597656 1.609375 -3.328125 C 1.453125 -3.066406 1.375 -2.691406 1.375 -2.203125 L 1.375 0 L 0.671875 0 L 0.671875 -4.234375 L 1.234375 -4.234375 L 1.34375 -3.65625 L 1.375 -3.65625 C 1.507812 -3.882812 1.6875 -4.050781 1.90625 -4.15625 C 2.132812 -4.257812 2.375 -4.3125 2.625 -4.3125 C 3.289062 -4.3125 3.722656 -4.078125 3.921875 -3.609375 L 3.96875 -3.609375 C 4.101562 -3.847656 4.289062 -4.023438 4.53125 -4.140625 C 4.78125 -4.253906 5.046875 -4.3125 5.328125 -4.3125 Z M 5.328125 -4.3125 "/>
</g>
<g id="glyph-2-5">
<path d="M 2.3125 -4.3125 C 2.675781 -4.3125 2.988281 -4.234375 3.25 -4.078125 C 3.507812 -3.921875 3.707031 -3.695312 3.84375 -3.40625 C 3.988281 -3.125 4.0625 -2.789062 4.0625 -2.40625 L 4.0625 -1.984375 L 1.15625 -1.984375 C 1.164062 -1.503906 1.285156 -1.140625 1.515625 -0.890625 C 1.753906 -0.640625 2.082031 -0.515625 2.5 -0.515625 C 2.769531 -0.515625 3.007812 -0.539062 3.21875 -0.59375 C 3.425781 -0.644531 3.640625 -0.71875 3.859375 -0.8125 L 3.859375 -0.203125 C 3.648438 -0.109375 3.4375 -0.0390625 3.21875 0 C 3.007812 0.0507812 2.757812 0.078125 2.46875 0.078125 C 2.070312 0.078125 1.71875 0 1.40625 -0.15625 C 1.101562 -0.320312 0.863281 -0.566406 0.6875 -0.890625 C 0.519531 -1.222656 0.4375 -1.625 0.4375 -2.09375 C 0.4375 -2.550781 0.515625 -2.945312 0.671875 -3.28125 C 0.828125 -3.613281 1.046875 -3.867188 1.328125 -4.046875 C 1.609375 -4.222656 1.9375 -4.3125 2.3125 -4.3125 Z M 2.296875 -3.75 C 1.960938 -3.75 1.695312 -3.640625 1.5 -3.421875 C 1.3125 -3.210938 1.203125 -2.914062 1.171875 -2.53125 L 3.328125 -2.53125 C 3.328125 -2.894531 3.242188 -3.1875 3.078125 -3.40625 C 2.910156 -3.632812 2.648438 -3.75 2.296875 -3.75 Z M 2.296875 -3.75 "/>
</g>
<g id="glyph-2-6">
<path d="M 2.28125 -4.3125 C 2.789062 -4.3125 3.171875 -4.195312 3.421875 -3.96875 C 3.671875 -3.738281 3.796875 -3.378906 3.796875 -2.890625 L 3.796875 0 L 3.28125 0 L 3.15625 -0.59375 L 3.125 -0.59375 C 2.9375 -0.363281 2.738281 -0.191406 2.53125 -0.078125 C 2.332031 0.0234375 2.054688 0.078125 1.703125 0.078125 C 1.316406 0.078125 0.992188 -0.0195312 0.734375 -0.21875 C 0.484375 -0.425781 0.359375 -0.742188 0.359375 -1.171875 C 0.359375 -1.597656 0.523438 -1.925781 0.859375 -2.15625 C 1.191406 -2.382812 1.703125 -2.507812 2.390625 -2.53125 L 3.109375 -2.546875 L 3.109375 -2.8125 C 3.109375 -3.164062 3.03125 -3.410156 2.875 -3.546875 C 2.726562 -3.679688 2.515625 -3.75 2.234375 -3.75 C 2.015625 -3.75 1.800781 -3.710938 1.59375 -3.640625 C 1.394531 -3.578125 1.210938 -3.503906 1.046875 -3.421875 L 0.828125 -3.9375 C 1.015625 -4.039062 1.234375 -4.128906 1.484375 -4.203125 C 1.734375 -4.273438 2 -4.3125 2.28125 -4.3125 Z M 2.484375 -2.046875 C 1.953125 -2.023438 1.582031 -1.941406 1.375 -1.796875 C 1.175781 -1.648438 1.078125 -1.441406 1.078125 -1.171875 C 1.078125 -0.929688 1.148438 -0.753906 1.296875 -0.640625 C 1.441406 -0.535156 1.628906 -0.484375 1.859375 -0.484375 C 2.210938 -0.484375 2.507812 -0.582031 2.75 -0.78125 C 2.988281 -0.976562 3.109375 -1.28125 3.109375 -1.6875 L 3.109375 -2.078125 Z M 2.484375 -2.046875 "/>
</g>
<g id="glyph-2-7">
<path d="M 2.171875 -4.3125 C 2.453125 -4.3125 2.703125 -4.257812 2.921875 -4.15625 C 3.148438 -4.050781 3.34375 -3.890625 3.5 -3.671875 L 3.546875 -3.671875 L 3.640625 -4.234375 L 4.1875 -4.234375 L 4.1875 0.078125 C 4.1875 0.679688 4.03125 1.132812 3.71875 1.4375 C 3.414062 1.738281 2.941406 1.890625 2.296875 1.890625 C 1.671875 1.890625 1.160156 1.800781 0.765625 1.625 L 0.765625 0.984375 C 1.179688 1.210938 1.703125 1.328125 2.328125 1.328125 C 2.691406 1.328125 2.976562 1.21875 3.1875 1 C 3.394531 0.789062 3.5 0.5 3.5 0.125 L 3.5 -0.046875 C 3.5 -0.109375 3.5 -0.195312 3.5 -0.3125 C 3.507812 -0.425781 3.519531 -0.507812 3.53125 -0.5625 L 3.5 -0.5625 C 3.207031 -0.132812 2.769531 0.078125 2.1875 0.078125 C 1.632812 0.078125 1.203125 -0.113281 0.890625 -0.5 C 0.585938 -0.882812 0.4375 -1.421875 0.4375 -2.109375 C 0.4375 -2.785156 0.585938 -3.320312 0.890625 -3.71875 C 1.203125 -4.113281 1.628906 -4.3125 2.171875 -4.3125 Z M 2.265625 -3.734375 C 1.910156 -3.734375 1.632812 -3.59375 1.4375 -3.3125 C 1.25 -3.03125 1.15625 -2.628906 1.15625 -2.109375 C 1.15625 -1.585938 1.25 -1.1875 1.4375 -0.90625 C 1.632812 -0.625 1.914062 -0.484375 2.28125 -0.484375 C 2.707031 -0.484375 3.019531 -0.597656 3.21875 -0.828125 C 3.414062 -1.054688 3.515625 -1.425781 3.515625 -1.9375 L 3.515625 -2.109375 C 3.515625 -2.691406 3.410156 -3.109375 3.203125 -3.359375 C 3.003906 -3.609375 2.691406 -3.734375 2.265625 -3.734375 Z M 2.265625 -3.734375 "/>
</g>
<g id="glyph-2-8">
<path d="M 4.21875 -4.234375 L 4.21875 0 L 3.640625 0 L 3.546875 -0.5625 L 3.515625 -0.5625 C 3.378906 -0.34375 3.1875 -0.179688 2.9375 -0.078125 C 2.695312 0.0234375 2.441406 0.078125 2.171875 0.078125 C 1.660156 0.078125 1.273438 -0.0390625 1.015625 -0.28125 C 0.753906 -0.53125 0.625 -0.925781 0.625 -1.46875 L 0.625 -4.234375 L 1.328125 -4.234375 L 1.328125 -1.515625 C 1.328125 -0.835938 1.640625 -0.5 2.265625 -0.5 C 2.734375 -0.5 3.054688 -0.628906 3.234375 -0.890625 C 3.421875 -1.148438 3.515625 -1.53125 3.515625 -2.03125 L 3.515625 -4.234375 Z M 4.21875 -4.234375 "/>
</g>
<g id="glyph-2-9">
<path d="M 2.71875 -4.3125 C 3.21875 -4.3125 3.597656 -4.1875 3.859375 -3.9375 C 4.117188 -3.695312 4.25 -3.304688 4.25 -2.765625 L 4.25 0 L 3.5625 0 L 3.5625 -2.71875 C 3.5625 -3.394531 3.242188 -3.734375 2.609375 -3.734375 C 2.140625 -3.734375 1.816406 -3.597656 1.640625 -3.328125 C 1.460938 -3.066406 1.375 -2.691406 1.375 -2.203125 L 1.375 0 L 0.671875 0 L 0.671875 -4.234375 L 1.234375 -4.234375 L 1.34375 -3.65625 L 1.375 -3.65625 C 1.507812 -3.882812 1.695312 -4.050781 1.9375 -4.15625 C 2.1875 -4.257812 2.445312 -4.3125 2.71875 -4.3125 Z M 2.71875 -4.3125 "/>
</g>
<g id="glyph-2-10">
<path d="M 2.09375 -0.484375 C 2.195312 -0.484375 2.300781 -0.492188 2.40625 -0.515625 C 2.519531 -0.535156 2.613281 -0.554688 2.6875 -0.578125 L 2.6875 -0.046875 C 2.601562 -0.00390625 2.492188 0.0234375 2.359375 0.046875 C 2.222656 0.0664062 2.09375 0.078125 1.96875 0.078125 C 1.75 0.078125 1.546875 0.0390625 1.359375 -0.03125 C 1.171875 -0.113281 1.019531 -0.25 0.90625 -0.4375 C 0.789062 -0.625 0.734375 -0.890625 0.734375 -1.234375 L 0.734375 -3.703125 L 0.125 -3.703125 L 0.125 -4.03125 L 0.734375 -4.3125 L 1.015625 -5.203125 L 1.421875 -5.203125 L 1.421875 -4.234375 L 2.65625 -4.234375 L 2.65625 -3.703125 L 1.421875 -3.703125 L 1.421875 -1.25 C 1.421875 -0.988281 1.484375 -0.796875 1.609375 -0.671875 C 1.734375 -0.546875 1.894531 -0.484375 2.09375 -0.484375 Z M 2.09375 -0.484375 "/>
</g>
<g id="glyph-2-11">
<path d="M 3.4375 -1.171875 C 3.4375 -0.753906 3.28125 -0.441406 2.96875 -0.234375 C 2.664062 -0.0234375 2.253906 0.078125 1.734375 0.078125 C 1.441406 0.078125 1.1875 0.0507812 0.96875 0 C 0.757812 -0.0390625 0.570312 -0.101562 0.40625 -0.1875 L 0.40625 -0.828125 C 0.582031 -0.742188 0.789062 -0.664062 1.03125 -0.59375 C 1.269531 -0.519531 1.507812 -0.484375 1.75 -0.484375 C 2.101562 -0.484375 2.359375 -0.539062 2.515625 -0.65625 C 2.679688 -0.769531 2.765625 -0.921875 2.765625 -1.109375 C 2.765625 -1.210938 2.734375 -1.304688 2.671875 -1.390625 C 2.609375 -1.472656 2.503906 -1.554688 2.359375 -1.640625 C 2.210938 -1.722656 2 -1.816406 1.71875 -1.921875 C 1.4375 -2.035156 1.195312 -2.144531 1 -2.25 C 0.8125 -2.351562 0.664062 -2.476562 0.5625 -2.625 C 0.457031 -2.769531 0.40625 -2.957031 0.40625 -3.1875 C 0.40625 -3.550781 0.550781 -3.828125 0.84375 -4.015625 C 1.132812 -4.210938 1.519531 -4.3125 2 -4.3125 C 2.25 -4.3125 2.484375 -4.285156 2.703125 -4.234375 C 2.929688 -4.191406 3.144531 -4.125 3.34375 -4.03125 L 3.109375 -3.484375 C 2.929688 -3.554688 2.742188 -3.617188 2.546875 -3.671875 C 2.347656 -3.722656 2.144531 -3.75 1.9375 -3.75 C 1.65625 -3.75 1.4375 -3.703125 1.28125 -3.609375 C 1.132812 -3.515625 1.0625 -3.390625 1.0625 -3.234375 C 1.0625 -3.117188 1.09375 -3.019531 1.15625 -2.9375 C 1.226562 -2.851562 1.34375 -2.769531 1.5 -2.6875 C 1.664062 -2.613281 1.882812 -2.523438 2.15625 -2.421875 C 2.425781 -2.328125 2.65625 -2.222656 2.84375 -2.109375 C 3.03125 -2.003906 3.175781 -1.878906 3.28125 -1.734375 C 3.382812 -1.585938 3.4375 -1.398438 3.4375 -1.171875 Z M 3.4375 -1.171875 "/>
</g>
<g id="glyph-2-12">
<path d="M 1.515625 -0.828125 C 1.453125 -0.546875 1.351562 -0.238281 1.21875 0.09375 C 1.09375 0.425781 0.96875 0.734375 0.84375 1.015625 L 0.328125 1.015625 C 0.398438 0.710938 0.472656 0.382812 0.546875 0.03125 C 0.628906 -0.320312 0.6875 -0.640625 0.71875 -0.921875 L 1.46875 -0.921875 Z M 1.515625 -0.828125 "/>
</g>
<g id="glyph-2-13">
<path d="M 2.6875 -4.3125 C 3.207031 -4.3125 3.625 -4.128906 3.9375 -3.765625 C 4.257812 -3.398438 4.421875 -2.851562 4.421875 -2.125 C 4.421875 -1.40625 4.257812 -0.859375 3.9375 -0.484375 C 3.625 -0.109375 3.207031 0.078125 2.6875 0.078125 C 2.351562 0.078125 2.078125 0.015625 1.859375 -0.109375 C 1.648438 -0.234375 1.488281 -0.375 1.375 -0.53125 L 1.328125 -0.53125 C 1.335938 -0.445312 1.347656 -0.332031 1.359375 -0.1875 C 1.367188 -0.0507812 1.375 0.0625 1.375 0.15625 L 1.375 1.890625 L 0.671875 1.890625 L 0.671875 -4.234375 L 1.234375 -4.234375 L 1.34375 -3.65625 L 1.375 -3.65625 C 1.5 -3.84375 1.660156 -4 1.859375 -4.125 C 2.066406 -4.25 2.34375 -4.3125 2.6875 -4.3125 Z M 2.5625 -3.734375 C 2.125 -3.734375 1.816406 -3.609375 1.640625 -3.359375 C 1.472656 -3.117188 1.382812 -2.753906 1.375 -2.265625 L 1.375 -2.125 C 1.375 -1.601562 1.457031 -1.203125 1.625 -0.921875 C 1.789062 -0.640625 2.109375 -0.5 2.578125 -0.5 C 2.835938 -0.5 3.050781 -0.566406 3.21875 -0.703125 C 3.382812 -0.847656 3.503906 -1.039062 3.578125 -1.28125 C 3.660156 -1.53125 3.703125 -1.816406 3.703125 -2.140625 C 3.703125 -2.617188 3.609375 -3.003906 3.421875 -3.296875 C 3.234375 -3.585938 2.945312 -3.734375 2.5625 -3.734375 Z M 2.5625 -3.734375 "/>
</g>
<g id="glyph-2-14">
<path d="M 2.171875 0.078125 C 1.648438 0.078125 1.226562 -0.101562 0.90625 -0.46875 C 0.59375 -0.832031 0.4375 -1.378906 0.4375 -2.109375 C 0.4375 -2.835938 0.59375 -3.382812 0.90625 -3.75 C 1.226562 -4.125 1.65625 -4.3125 2.1875 -4.3125 C 2.507812 -4.3125 2.773438 -4.25 2.984375 -4.125 C 3.191406 -4.007812 3.363281 -3.863281 3.5 -3.6875 L 3.546875 -3.6875 C 3.535156 -3.757812 3.523438 -3.863281 3.515625 -4 C 3.503906 -4.132812 3.5 -4.238281 3.5 -4.3125 L 3.5 -6.015625 L 4.1875 -6.015625 L 4.1875 0 L 3.625 0 L 3.53125 -0.5625 L 3.5 -0.5625 C 3.375 -0.382812 3.203125 -0.234375 2.984375 -0.109375 C 2.773438 0.015625 2.503906 0.078125 2.171875 0.078125 Z M 2.28125 -0.5 C 2.726562 -0.5 3.039062 -0.617188 3.21875 -0.859375 C 3.40625 -1.109375 3.5 -1.476562 3.5 -1.96875 L 3.5 -2.109375 C 3.5 -2.628906 3.410156 -3.03125 3.234375 -3.3125 C 3.066406 -3.59375 2.75 -3.734375 2.28125 -3.734375 C 1.90625 -3.734375 1.625 -3.582031 1.4375 -3.28125 C 1.25 -2.988281 1.15625 -2.59375 1.15625 -2.09375 C 1.15625 -1.59375 1.25 -1.203125 1.4375 -0.921875 C 1.625 -0.640625 1.90625 -0.5 2.28125 -0.5 Z M 2.28125 -0.5 "/>
</g>
<g id="glyph-2-15">
<path d="M 1.375 -4.546875 C 1.375 -4.367188 1.367188 -4.203125 1.359375 -4.046875 C 1.347656 -3.890625 1.335938 -3.765625 1.328125 -3.671875 L 1.375 -3.671875 C 1.488281 -3.847656 1.648438 -4 1.859375 -4.125 C 2.078125 -4.25 2.351562 -4.3125 2.6875 -4.3125 C 3.207031 -4.3125 3.625 -4.125 3.9375 -3.75 C 4.257812 -3.382812 4.421875 -2.84375 4.421875 -2.125 C 4.421875 -1.394531 4.257812 -0.84375 3.9375 -0.46875 C 3.625 -0.101562 3.207031 0.078125 2.6875 0.078125 C 2.351562 0.078125 2.078125 0.0195312 1.859375 -0.09375 C 1.648438 -0.21875 1.488281 -0.363281 1.375 -0.53125 L 1.3125 -0.53125 L 1.171875 0 L 0.671875 0 L 0.671875 -6.015625 L 1.375 -6.015625 Z M 2.5625 -3.734375 C 2.113281 -3.734375 1.800781 -3.601562 1.625 -3.34375 C 1.457031 -3.082031 1.375 -2.679688 1.375 -2.140625 L 1.375 -2.109375 C 1.375 -1.585938 1.457031 -1.1875 1.625 -0.90625 C 1.789062 -0.632812 2.109375 -0.5 2.578125 -0.5 C 2.953125 -0.5 3.234375 -0.640625 3.421875 -0.921875 C 3.609375 -1.203125 3.703125 -1.601562 3.703125 -2.125 C 3.703125 -3.195312 3.320312 -3.734375 2.5625 -3.734375 Z M 2.5625 -3.734375 "/>
</g>
<g id="glyph-2-16">
<path d="M 0.015625 -4.234375 L 0.75 -4.234375 L 1.671875 -1.828125 C 1.742188 -1.617188 1.8125 -1.414062 1.875 -1.21875 C 1.9375 -1.03125 1.988281 -0.847656 2.03125 -0.671875 L 2.0625 -0.671875 C 2.09375 -0.804688 2.140625 -0.976562 2.203125 -1.1875 C 2.273438 -1.40625 2.347656 -1.617188 2.421875 -1.828125 L 3.28125 -4.234375 L 4.03125 -4.234375 L 2.203125 0.578125 C 2.054688 0.984375 1.863281 1.300781 1.625 1.53125 C 1.394531 1.769531 1.078125 1.890625 0.671875 1.890625 C 0.535156 1.890625 0.421875 1.882812 0.328125 1.875 C 0.234375 1.863281 0.15625 1.847656 0.09375 1.828125 L 0.09375 1.28125 C 0.144531 1.289062 0.210938 1.300781 0.296875 1.3125 C 0.378906 1.320312 0.460938 1.328125 0.546875 1.328125 C 0.796875 1.328125 0.992188 1.257812 1.140625 1.125 C 1.296875 0.988281 1.414062 0.804688 1.5 0.578125 L 1.71875 0.015625 Z M 0.015625 -4.234375 "/>
</g>
<g id="glyph-2-17">
<path d="M 2.375 0.078125 C 2 0.078125 1.664062 0.00390625 1.375 -0.140625 C 1.082031 -0.296875 0.851562 -0.535156 0.6875 -0.859375 C 0.519531 -1.179688 0.4375 -1.59375 0.4375 -2.09375 C 0.4375 -2.613281 0.519531 -3.035156 0.6875 -3.359375 C 0.863281 -3.691406 1.097656 -3.929688 1.390625 -4.078125 C 1.691406 -4.234375 2.035156 -4.3125 2.421875 -4.3125 C 2.640625 -4.3125 2.847656 -4.289062 3.046875 -4.25 C 3.242188 -4.207031 3.40625 -4.15625 3.53125 -4.09375 L 3.328125 -3.515625 C 3.191406 -3.554688 3.039062 -3.597656 2.875 -3.640625 C 2.707031 -3.679688 2.550781 -3.703125 2.40625 -3.703125 C 1.570312 -3.703125 1.15625 -3.171875 1.15625 -2.109375 C 1.15625 -1.597656 1.253906 -1.203125 1.453125 -0.921875 C 1.660156 -0.648438 1.960938 -0.515625 2.359375 -0.515625 C 2.597656 -0.515625 2.800781 -0.539062 2.96875 -0.59375 C 3.144531 -0.644531 3.3125 -0.703125 3.46875 -0.765625 L 3.46875 -0.15625 C 3.320312 -0.0820312 3.160156 -0.0234375 2.984375 0.015625 C 2.816406 0.0546875 2.613281 0.078125 2.375 0.078125 Z M 2.375 0.078125 "/>
</g>
<g id="glyph-2-18">
<path d="M 1.375 0 L 0.671875 0 L 0.671875 -6.015625 L 1.375 -6.015625 Z M 1.375 0 "/>
</g>
</g>
</defs>
<rect x="-16" y="-13" width="192" height="156" fill="rgb(100%, 100%, 100%)" fill-opacity="1"/>
<path fill-rule="evenodd" fill="rgb(100%, 100%, 80.000001%)" fill-opacity="1" stroke-width="0.05" stroke-linecap="butt" stroke-linejoin="miter" stroke="rgb(100%, 100%, 100%)" stroke-opacity="1" stroke-miterlimit="10" d="M -11.165112 -4.024135 L -9.195386 -4.024135 L -9.195386 -3.066323 L -11.165112 -3.066323 Z M -11.165112 -4.024135 " transform="matrix(20, 0, 0, 20, 327.896, 135.4788)"/>
<g fill="rgb(90.196079%, 0%, 90.196079%)" fill-opacity="1">
<use xlink:href="#glyph-0-0" x="48.933594" y="71.483995"/>
<use xlink:href="#glyph-0-1" x="61.155816" y="71.483995"/>
<use xlink:href="#glyph-0-2" x="73.378038" y="71.483995"/>
<use xlink:href="#glyph-0-3" x="78.655816" y="71.483995"/>
<use xlink:href="#glyph-0-4" x="91.155816" y="71.483995"/>
</g>
<g fill="rgb(0%, 0%, 0%)" fill-opacity="1">
<use xlink:href="#glyph-0-5" x="99.183594" y="70.776964"/>
</g>
<g fill="rgb(90.196079%, 45.09804%, 0%)" fill-opacity="1">
<use xlink:href="#glyph-1-0" x="106.476562" y="70.776964"/>
</g>
<g fill="rgb(90.196079%, 45.09804%, 0%)" fill-opacity="1">
<use xlink:href="#glyph-1-1" x="129.394531" y="71.483995"/>
</g>
<g fill="rgb(0%, 0%, 0%)" fill-opacity="1">
<use xlink:href="#glyph-0-6" x="117.394531" y="71.483995"/>
</g>
<g fill="rgb(0%, 0%, 0%)" fill-opacity="1">
<use xlink:href="#glyph-0-7" x="141.394531" y="71.483995"/>
</g>
<path fill="none" stroke-width="0.1" stroke-linecap="butt" stroke-linejoin="miter" stroke="rgb(0%, 0%, 0%)" stroke-opacity="1" stroke-miterlimit="10" d="M -13.950659 -2.624526 L -11.82937 -2.624526 " transform="matrix(20, 0, 0, 20, 327.896, 135.4788)"/>
<path fill="none" stroke-width="0.1" stroke-linecap="butt" stroke-linejoin="miter" stroke="rgb(0%, 0%, 0%)" stroke-opacity="1" stroke-miterlimit="10" d="M -12.978394 -2.589174 L -12.978394 -1.687612 " transform="matrix(20, 0, 0, 20, 327.896, 135.4788)"/>
<path fill="none" stroke-width="0.1" stroke-linecap="butt" stroke-linejoin="miter" stroke="rgb(0%, 0%, 0%)" stroke-opacity="1" stroke-miterlimit="10" d="M -10.1323 -4.091713 L -10.1323 -5.629604 " transform="matrix(20, 0, 0, 20, 327.896, 135.4788)"/>
<path fill="none" stroke-width="0.1" stroke-linecap="butt" stroke-linejoin="miter" stroke="rgb(0%, 0%, 0%)" stroke-opacity="1" stroke-miterlimit="10" d="M -9.920191 -2.818862 L -9.309058 -2.815737 " transform="matrix(20, 0, 0, 20, 327.896, 135.4788)"/>
<path fill="none" stroke-width="0.1" stroke-linecap="butt" stroke-linejoin="miter" stroke="rgb(0%, 0%, 0%)" stroke-opacity="1" stroke-miterlimit="10" d="M -11.094409 -2.851088 L -10.581714 -2.851088 " transform="matrix(20, 0, 0, 20, 327.896, 135.4788)"/>
<g fill="rgb(0%, 0%, 0%)" fill-opacity="1">
<use xlink:href="#glyph-2-0" x="76.460938" y="9.459256"/>
<use xlink:href="#glyph-2-1" x="80.905382" y="9.459256"/>
<use xlink:href="#glyph-2-2" x="82.849826" y="9.459256"/>
<use xlink:href="#glyph-2-3" x="87.572049" y="9.459256"/>
<use xlink:href="#glyph-2-1" x="90.905382" y="9.459256"/>
<use xlink:href="#glyph-2-4" x="92.849826" y="9.459256"/>
<use xlink:href="#glyph-2-2" x="100.349826" y="9.459256"/>
<use xlink:href="#glyph-2-3" x="105.072049" y="9.459256"/>
<use xlink:href="#glyph-2-5" x="108.127604" y="9.459256"/>
<use xlink:href="#glyph-2-1" x="112.572049" y="9.459256"/>
<use xlink:href="#glyph-2-6" x="114.516493" y="9.459256"/>
<use xlink:href="#glyph-2-3" x="118.960938" y="9.459256"/>
<use xlink:href="#glyph-2-7" x="122.016493" y="9.459256"/>
<use xlink:href="#glyph-2-8" x="126.738715" y="9.459256"/>
<use xlink:href="#glyph-2-4" x="131.738715" y="9.459256"/>
<use xlink:href="#glyph-2-5" x="139.238715" y="9.459256"/>
<use xlink:href="#glyph-2-9" x="143.68316" y="9.459256"/>
<use xlink:href="#glyph-2-10" x="148.68316" y="9.459256"/>
<use xlink:href="#glyph-2-11" x="151.460938" y="9.459256"/>
<use xlink:href="#glyph-2-12" x="155.349826" y="9.459256"/>
<use xlink:href="#glyph-2-1" x="157.572049" y="9.459256"/>
</g>
<g fill="rgb(0%, 0%, 0%)" fill-opacity="1">
<use xlink:href="#glyph-2-11" x="76.460938" y="19.338162"/>
<use xlink:href="#glyph-2-5" x="80.349826" y="19.338162"/>
<use xlink:href="#glyph-2-13" x="84.794271" y="19.338162"/>
<use xlink:href="#glyph-2-6" x="89.516493" y="19.338162"/>
<use xlink:href="#glyph-2-3" x="93.960938" y="19.338162"/>
<use xlink:href="#glyph-2-6" x="97.016493" y="19.338162"/>
<use xlink:href="#glyph-2-10" x="101.460938" y="19.338162"/>
<use xlink:href="#glyph-2-5" x="104.238715" y="19.338162"/>
<use xlink:href="#glyph-2-14" x="108.68316" y="19.338162"/>
<use xlink:href="#glyph-2-1" x="113.405382" y="19.338162"/>
<use xlink:href="#glyph-2-15" x="115.349826" y="19.338162"/>
<use xlink:href="#glyph-2-16" x="120.072049" y="19.338162"/>
<use xlink:href="#glyph-2-1" x="124.238715" y="19.338162"/>
<use xlink:href="#glyph-2-17" x="126.18316" y="19.338162"/>
<use xlink:href="#glyph-2-2" x="130.072049" y="19.338162"/>
<use xlink:href="#glyph-2-4" x="134.794271" y="19.338162"/>
<use xlink:href="#glyph-2-4" x="142.294271" y="19.338162"/>
<use xlink:href="#glyph-2-6" x="149.794271" y="19.338162"/>
<use xlink:href="#glyph-2-11" x="154.238715" y="19.338162"/>
</g>
<path fill="none" stroke-width="0.1" stroke-linecap="butt" stroke-linejoin="miter" stroke="rgb(0%, 0%, 0%)" stroke-opacity="1" stroke-miterlimit="10" d="M -10.838159 -2.851088 L -10.838159 -1.80812 L -10.192847 -1.80812 L -10.192847 -0.765151 " transform="matrix(20, 0, 0, 20, 327.896, 135.4788)"/>
<path fill="none" stroke-width="0.1" stroke-linecap="butt" stroke-linejoin="miter" stroke="rgb(0%, 0%, 0%)" stroke-opacity="1" stroke-miterlimit="10" d="M -9.596948 -2.852651 L -9.596948 -1.801674 L -10.167652 -1.801674 L -10.167652 -0.750698 " transform="matrix(20, 0, 0, 20, 327.896, 135.4788)"/>
<g fill="rgb(0%, 0%, 0%)" fill-opacity="1">
<use xlink:href="#glyph-2-17" x="44.992188" y="111.283474"/>
<use xlink:href="#glyph-2-18" x="48.881076" y="111.283474"/>
<use xlink:href="#glyph-2-6" x="50.825521" y="111.283474"/>
<use xlink:href="#glyph-2-11" x="55.269965" y="111.283474"/>
<use xlink:href="#glyph-2-11" x="59.158854" y="111.283474"/>
<use xlink:href="#glyph-2-1" x="63.047743" y="111.283474"/>
<use xlink:href="#glyph-2-9" x="64.992188" y="111.283474"/>
<use xlink:href="#glyph-2-6" x="69.992188" y="111.283474"/>
<use xlink:href="#glyph-2-4" x="74.436632" y="111.283474"/>
<use xlink:href="#glyph-2-5" x="81.936632" y="111.283474"/>
</g>
<g fill="rgb(0%, 0%, 0%)" fill-opacity="1">
<use xlink:href="#glyph-2-6" x="101.914062" y="127.017849"/>
<use xlink:href="#glyph-2-3" x="106.358507" y="127.017849"/>
<use xlink:href="#glyph-2-7" x="109.414062" y="127.017849"/>
<use xlink:href="#glyph-2-8" x="114.136285" y="127.017849"/>
<use xlink:href="#glyph-2-4" x="119.136285" y="127.017849"/>
<use xlink:href="#glyph-2-5" x="126.636285" y="127.017849"/>
<use xlink:href="#glyph-2-9" x="131.080729" y="127.017849"/>
<use xlink:href="#glyph-2-10" x="136.080729" y="127.017849"/>
<use xlink:href="#glyph-2-11" x="138.858507" y="127.017849"/>
</g>
<g fill="rgb(0%, 0%, 0%)" fill-opacity="1">
<use xlink:href="#glyph-0-3" x="1" y="71.390245"/>
<use xlink:href="#glyph-0-8" x="13.5" y="71.390245"/>
<use xlink:href="#glyph-0-9" x="24.611111" y="71.390245"/>
</g>
</svg>
